<svg xmlns="http://www.w3.org/2000/svg" width="120" height="48" viewBox="0 0 120 48" fill="none">
  <rect width="120" height="48" rx="8" fill="#0F172A"/>
  <path d="M26.8 32L31.4 24.2L27 16.5H31.4L33.9 21.1C34.3 21.9 34.6 22.5 34.8 22.9H34.9C35.1 22.5 35.4 21.9 35.8 21.1L38.3 16.5H42.5L38.1 24.1L42.7 32H38.4L35.7 27C35.3 26.2 35 25.6 34.8 25.2H34.7C34.5 25.6 34.2 26.2 33.8 27L31.1 32H26.8Z" fill="#22C55E"/>
  <path d="M46.4 32V16.5H50.6V32H46.4Z" fill="white"/>
  <path d="M60.3 32V19.9H55.8V16.5H70.4V19.9H65.8V32H60.3Z" fill="white"/>
  <path d="M74.3 32V16.5H81.1C83 16.5 84.5 17 85.6 18C86.7 19 87.2 20.3 87.2 22.1C87.2 23.8 86.7 25.1 85.7 26C84.7 27 83.2 27.5 81.3 27.5H78.5V32H74.3ZM78.5 24.3H80.6C81.7 24.3 82.5 24.1 83 23.7C83.5 23.3 83.8 22.7 83.8 21.9C83.8 21.1 83.5 20.5 83 20.1C82.5 19.6 81.7 19.4 80.7 19.4H78.5V24.3Z" fill="white"/>
  <path d="M91.4 32V16.5H95.6V22.3H95.7L101.1 16.5H106.2L99.7 23.2L106.7 32H101.5L96.9 26H96.6V32H91.4Z" fill="white"/>
  <text x="8" y="35" fill="#F8FAFC" font-family="Inter, Arial, sans-serif" font-size="10" font-weight="600" letter-spacing="0.6">YARDI</text>
</svg>

